<?xml version="1.0" encoding="UTF-8"?><svg id="_圖層_2" xmlns="http://www.w3.org/2000/svg" xmlns:xlink="http://www.w3.org/1999/xlink" viewBox="0 0 100 100"><defs><style>.cls-1{fill:#040762;}.cls-2{fill:#f2bd2e;}.cls-3{fill:#943743;}.cls-4{fill:#279ea1;}.cls-5{clip-path:url(#clippath);}.cls-6{fill:none;}</style><clipPath id="clippath"><rect class="cls-6" width="100" height="100"/></clipPath></defs><g id="_四角花圖"><g class="cls-5"><g><g><path class="cls-3" d="M37.52,81.35c5.55,6.03,13.47,9.59,22.17,8.9,13.56-1.06,24.61-12.64,25.81-27.04,.75-9.05-2.32-17.33-7.66-23.29,11.95-3.41,20.77-14.99,20.77-28.78,0-3.36-.55-6.57-1.51-9.59H31.44C14.89,1.57,1.48,15.84,1.48,33.44v62.81c3.29,1.45,6.9,2.25,10.68,2.25,11.22,0,20.88-7.03,25.36-17.16Z"/><path class="cls-1" d="M12.16,100c-3.86,0-7.64-.8-11.22-2.37l-.87-.38V33.44C.07,15.05,14.15,.08,31.44,.08H98.09l.32,1.01c1.05,3.29,1.58,6.67,1.58,10.07,0,13.33-7.99,25.15-19.68,29.52,4.88,6.32,7.26,14.46,6.57,22.68-1.26,15.07-12.91,27.28-27.1,28.39-8.05,.63-15.93-2.24-21.88-7.93-5.15,9.9-15.06,16.18-25.75,16.18Zm-9.28-4.76c2.98,1.18,6.1,1.78,9.28,1.78,10.25,0,19.71-6.4,24.09-16.3l.86-1.94,1.41,1.53c5.51,5.99,13.19,9.08,21.06,8.46,12.84-1.01,23.38-12.05,24.52-25.68,.68-8.15-1.98-16.22-7.28-22.12l-1.63-1.82,2.28-.65c11.62-3.32,19.73-14.56,19.73-27.34,0-2.72-.38-5.44-1.13-8.1H31.44C15.69,3.06,2.88,16.69,2.88,33.44v61.8Z"/></g><g><path class="cls-2" d="M30.94,66.8c7.63,8.3,20.76,10.86,33.16,.84,9.25-12.91,7.16-26.51-.2-34.71,9.77-2.79,16.98-12.25,16.98-23.53,0-2.75-.45-5.38-1.23-7.84H1.48s0,52.41,0,52.41v25c2.69,1.18,5.64,1.84,8.73,1.84,9.17,0,17.07-5.75,20.73-14.03Z"/><path class="cls-1" d="M10.21,82.4c-3.2,0-6.33-.66-9.3-1.96l-.91-.4V0H80.71l.34,1.07c.87,2.72,1.31,5.53,1.31,8.34,0,10.88-6.42,20.55-15.88,24.3,6.22,8.43,8.1,21.9-1.2,34.89l-.12,.17-.16,.13c-12.74,10.29-25.73,7.77-33.64,.47-4.32,7.98-12.42,13.03-21.14,13.03Zm-7.26-4.49c2.33,.9,4.77,1.35,7.26,1.35,8.25,0,15.87-5.15,19.4-13.12l.91-2.05,1.49,1.62c6.77,7.37,18.98,10.45,31.05,.82,9.42-13.31,5.79-25.81-.21-32.5l-1.72-1.91,2.4-.69c9.35-2.67,15.89-11.72,15.89-22.01,0-2.1-.28-4.21-.84-6.27H2.95V77.91Z"/></g><g><path class="cls-4" d="M25.03,29.25s2.88,32.9,32.24,28.06c0,0,2.88-26.29-32.24-28.06Z"/><path class="cls-1" d="M29.52,33.39c8.6,1.12,15.01,4.07,19.1,8.82,3.56,4.13,4.6,8.85,4.88,11.8-.65,.04-1.28,.07-1.9,.07-15.17,0-20.37-13.44-22.08-20.68m-4.49-4.14s2.5,28.55,26.57,28.55c1.77,0,3.66-.15,5.67-.49,0,0,2.88-26.29-32.24-28.06h0Z"/></g></g></g></g></svg>