<?xml version="1.0" encoding="utf-8"?>
<!-- Generator: Adobe Illustrator 26.5.0, SVG Export Plug-In . SVG Version: 6.00 Build 0)  -->
<svg version="1.1" id="_圖層_2" xmlns="http://www.w3.org/2000/svg" xmlns:xlink="http://www.w3.org/1999/xlink" x="0px" y="0px"
	 viewBox="0 0 100 100" style="enable-background:new 0 0 100 100;" xml:space="preserve">
<style type="text/css">
	.st0{clip-path:url(#SVGID_00000013902113544477522620000014790766952533118142_);}
	.st1{fill:#2E3192;}
	.st2{fill:#040762;}
	.st3{fill:#42499D;}
</style>
<g id="_四角花圖">
	<g>
		<defs>
			<rect id="SVGID_1_" width="100" height="100"/>
		</defs>
		<clipPath id="SVGID_00000170971743736905010270000009903065480127748771_">
			<use xlink:href="#SVGID_1_"  style="overflow:visible;"/>
		</clipPath>
		<g style="clip-path:url(#SVGID_00000170971743736905010270000009903065480127748771_);">
			<g>
				<g>
					<path class="st1" d="M37.5,81.3c5.5,6,13.5,9.6,22.2,8.9c13.6-1.1,24.6-12.6,25.8-27c0.8-9-2.3-17.3-7.7-23.3
						c11.9-3.4,20.8-15,20.8-28.8c0-3.4-0.6-6.6-1.5-9.6H31.4c-16.5,0-30,14.3-30,31.9v62.8c3.3,1.4,6.9,2.2,10.7,2.2
						C23.4,98.5,33,91.5,37.5,81.3L37.5,81.3z"/>
					<path class="st2" d="M12.2,100c-3.9,0-7.6-0.8-11.2-2.4l-0.9-0.4V33.4c0-18.4,14.1-33.4,31.4-33.4h66.6l0.3,1
						c1.1,3.3,1.6,6.7,1.6,10.1c0,13.3-8,25.1-19.7,29.5c4.9,6.3,7.3,14.5,6.6,22.7C85.6,78.4,74,90.6,59.8,91.8
						c-8,0.6-15.9-2.2-21.9-7.9C32.8,93.7,22.8,100,12.2,100L12.2,100z M2.9,95.2c3,1.2,6.1,1.8,9.3,1.8c10.2,0,19.7-6.4,24.1-16.3
						l0.9-1.9l1.4,1.5c5.5,6,13.2,9.1,21.1,8.5c12.8-1,23.4-12.1,24.5-25.7c0.7-8.2-2-16.2-7.3-22.1l-1.6-1.8l2.3-0.7
						c11.6-3.3,19.7-14.6,19.7-27.3c0-2.7-0.4-5.4-1.1-8.1H31.4C15.7,3.1,2.9,16.7,2.9,33.4V95.2z"/>
				</g>
				<g>
					<path class="st3" d="M30.9,66.8c7.6,8.3,20.8,10.9,33.2,0.8c9.2-12.9,7.2-26.5-0.2-34.7c9.8-2.8,17-12.2,17-23.5
						c0-2.8-0.4-5.4-1.2-7.8H1.5V54v25c2.7,1.2,5.6,1.8,8.7,1.8C19.4,80.8,27.3,75.1,30.9,66.8L30.9,66.8z"/>
					<path class="st2" d="M10.2,82.4c-3.2,0-6.3-0.7-9.3-2L0,80V0h80.7L81,1.1c0.9,2.7,1.3,5.5,1.3,8.3c0,10.9-6.4,20.5-15.9,24.3
						c6.2,8.4,8.1,21.9-1.2,34.9l-0.1,0.2L65,68.9c-12.7,10.3-25.7,7.8-33.6,0.5C27,77.3,18.9,82.4,10.2,82.4L10.2,82.4z M2.9,77.9
						c2.3,0.9,4.8,1.3,7.3,1.3c8.2,0,15.9-5.2,19.4-13.1l0.9-2.1l1.5,1.6c6.8,7.4,19,10.4,31,0.8c9.4-13.3,5.8-25.8-0.2-32.5
						l-1.7-1.9l2.4-0.7c9.4-2.7,15.9-11.7,15.9-22c0-2.1-0.3-4.2-0.8-6.3H3C3,3.1,3,77.9,2.9,77.9z"/>
				</g>
				<g>
					<path class="st1" d="M25,29.2c0,0,2.9,32.9,32.2,28.1C57.3,57.3,60.2,31,25,29.2z"/>
					<path class="st2" d="M29.5,33.4c8.6,1.1,15,4.1,19.1,8.8c3.6,4.1,4.6,8.8,4.9,11.8c-0.7,0-1.3,0.1-1.9,0.1
						C36.4,54.1,31.2,40.6,29.5,33.4 M25,29.3c0,0,2.5,28.5,26.6,28.5c1.8,0,3.7-0.2,5.7-0.5C57.3,57.3,60.2,31,25,29.3
						C25,29.3,25,29.3,25,29.3z"/>
				</g>
			</g>
		</g>
	</g>
</g>
</svg>
